<?xml version="1.0" ?>

<!-- Uploaded to: SVG Repo, www.svgrepo.com, Generator: SVG Repo Mixer Tools -->
<svg width="24" height="24" viewBox="0 0 512 512" version="1.1" xml:space="preserve" >
	<style type="text/css">
		.st0{fill:#333333;}
	</style>
	<g id="Layer_1"/>
	<g id="Layer_2">
	<g>
	<path class="st0" d="M468.5,70.59H222.11c-8.84,0-16,7.16-16,16v65.6c0,8.84,7.16,16,16,16H468.5c8.84,0,16-7.16,16-16v-65.6    C484.5,77.76,477.34,70.59,468.5,70.59z M452.5,136.2H238.11v-33.6H452.5V136.2z"/>
	<path class="st0" d="M379.19,207.2H132.81c-8.84,0-16,7.16-16,16v65.6c0,8.84,7.16,16,16,16h246.39c8.84,0,16-7.16,16-16v-65.6    C395.19,214.36,388.03,207.2,379.19,207.2z M363.19,272.8H148.81v-33.6h214.39V272.8z"/>
	<path class="st0" d="M43.5,441.41h246.39c8.84,0,16-7.16,16-16v-65.6c0-8.84-7.16-16-16-16H43.5c-8.84,0-16,7.16-16,16v65.6    C27.5,434.24,34.66,441.41,43.5,441.41z M59.5,375.8h214.39v33.6H59.5V375.8z"/>
	</g>
	</g>
</svg>